<svg width="73" height="73" viewBox="0 0 73 73" fill="none" xmlns="http://www.w3.org/2000/svg">
<rect x="0.5" y="0.5" width="72" height="72" rx="36" fill="white"/>
<rect x="0.5" y="0.5" width="72" height="72" rx="36" stroke="#1471B9"/>
<g clip-path="url(#clip0_3582_35668)">
<path d="M58.9158 14.2266H16.4844V61.6627H58.9158V14.2266Z" fill="#1471B9"/>
<path fill-rule="evenodd" clip-rule="evenodd" d="M31.9845 18.6367L30.9732 22.6023L26.874 22.9456L30.8618 24.1888L31.3759 28.6053L32.4818 24.302L35.5733 23.7361L33.1053 22.4891L31.9845 18.6367Z" fill="#FFCB05"/>
<path fill-rule="evenodd" clip-rule="evenodd" d="M27.7697 24.4121L26.6118 28.9139L21.7871 30.0886L26.7918 31.2354L28.0351 35.9951L28.8497 30.9088L32.665 29.8028L29.3749 28.6541L27.7697 24.4121Z" fill="#FFCB05"/>
<path fill-rule="evenodd" clip-rule="evenodd" d="M33.1477 31.4102L31.9897 35.912L27.165 37.0866L32.1698 38.2334L33.413 42.9932L34.2277 37.905L38.0429 36.8008L34.7528 35.654L33.1477 31.4102Z" fill="#FFCB05"/>
<path fill-rule="evenodd" clip-rule="evenodd" d="M36.9744 40.6562L36.5457 44.9632L32.3965 46.7261L36.9169 47.1845L38.4478 51.7995L38.7818 46.9562L42.0645 45.2156L38.8709 44.7535L36.9744 40.6562Z" fill="#FFCB05"/>
<path fill-rule="evenodd" clip-rule="evenodd" d="M30.5777 39.6777L29.8131 43.3983L25.5674 44.5266L29.8447 45.4748L30.5535 49.3049L31.4183 44.9998L34.4578 44.3874L31.6502 43.2369L30.5777 39.6777Z" fill="#FFCB05"/>
<path fill-rule="evenodd" clip-rule="evenodd" d="M25.3462 34.1973L24.578 37.9179L20.3359 39.0442L24.6114 39.651L25.3685 43.5294L26.185 39.5193L29.2282 38.9051L26.4206 37.7564L25.3462 34.1973Z" fill="#FFCB05"/>
<path fill-rule="evenodd" clip-rule="evenodd" d="M23.0218 31.5059L22.4465 33.4673L20.2383 33.6603L22.3871 34.5621L22.6098 36.7796L23.1832 34.5287L25.011 34.1576L23.7065 33.5953L23.0218 31.5059Z" fill="#FFCB05"/>
<path fill-rule="evenodd" clip-rule="evenodd" d="M24.6671 23.2832L23.9972 25.3411L21.7871 25.5378L23.9322 26.4397L24.3516 28.6535L24.8768 26.4063L26.7083 26.0351L25.2572 25.3764L24.6671 23.2832Z" fill="#FFCB05"/>
<path fill-rule="evenodd" clip-rule="evenodd" d="M38.4249 21.7695L37.7531 23.8275L35.5449 24.0204L37.6901 24.9223L38.1094 27.1398L38.6327 24.8889L40.4643 24.5178L39.0131 23.859L38.4249 21.7695Z" fill="#FFCB05"/>
<path fill-rule="evenodd" clip-rule="evenodd" d="M42.0107 24.7051L41.3427 26.763L39.1289 26.956L41.2778 27.8578L41.6934 30.0754L42.2204 27.8244L44.0501 27.4533L42.599 26.7945L42.0107 24.7051Z" fill="#FFCB05"/>
<path fill-rule="evenodd" clip-rule="evenodd" d="M36.6329 26.1719L35.8647 28.9145L32.7861 29.256L35.8999 30.0613L35.8814 33.305L36.9391 30.1244L39.3496 29.8034L37.223 28.998L36.6329 26.1719Z" fill="#FFCB05"/>
<path fill-rule="evenodd" clip-rule="evenodd" d="M40.5591 30.5293L39.7426 33.5169L36.2744 34.1534L39.4365 34.8567L39.9987 38.3435L40.9599 35.0181L43.3723 34.699L41.2903 33.5967L40.5591 30.5293Z" fill="#FFCB05"/>
<path fill-rule="evenodd" clip-rule="evenodd" d="M43.6564 20.3008L43.2315 22.3587L40.7783 22.5554L43.1666 23.2105L43.3428 25.6711L44.0109 23.3236L45.6958 23.0527L44.2484 22.3903L43.6564 20.3008Z" fill="#FFCB05"/>
<path fill-rule="evenodd" clip-rule="evenodd" d="M40.4592 17.8555L40.0342 19.9134L37.5811 20.2548L39.9711 20.7614L40.3386 23.2257L40.8136 20.8746L42.5468 20.3105L41.0511 19.9449L40.4592 17.8555Z" fill="#FFCB05"/>
<path fill-rule="evenodd" clip-rule="evenodd" d="M36.1025 17.2676L35.6738 19.1288L33.8516 19.3737L35.4623 19.7839L35.9299 21.415L36.2621 19.897L37.6557 19.4777L36.5423 19.1603L36.1025 17.2676Z" fill="#FFCB05"/>
<path fill-rule="evenodd" clip-rule="evenodd" d="M47.3882 22.0645L46.9113 23.8273L44.7012 24.1688L46.7981 24.7756L46.9261 26.6498L47.6943 24.8888L49.2327 24.5659L47.8317 23.9554L47.3882 22.0645Z" fill="#FFCB05"/>
<path fill-rule="evenodd" clip-rule="evenodd" d="M48.3711 25.875L47.9889 27.3039L46.1963 27.5803L47.8942 28.074L48 29.5919L48.6216 28.1649L49.8686 27.9032L48.733 27.4096L48.3711 25.875Z" fill="#FFCB05"/>
<path fill-rule="evenodd" clip-rule="evenodd" d="M45.1261 26.9512L44.7438 28.3819L42.9531 28.6584L44.6511 29.1501L44.7531 30.6681L45.3766 29.2411L46.6236 28.9813L45.4879 28.4877L45.1261 26.9512Z" fill="#FFCB05"/>
<path fill-rule="evenodd" clip-rule="evenodd" d="M45.9238 29.9531L45.4599 31.6678L43.5986 32.0036L45.3504 32.5956L45.4747 34.416L46.0759 32.41L47.2803 32.0983L46.3543 31.7976L45.9238 29.9531Z" fill="#FFCB05"/>
<path fill-rule="evenodd" clip-rule="evenodd" d="M48.9243 32.6953L48.4604 34.3134L46.7959 34.6456L48.5476 35.2357L48.672 37.058L49.2732 35.052L50.4794 34.7384L49.212 34.2448L48.9243 32.6953Z" fill="#FFCB05"/>
<path fill-rule="evenodd" clip-rule="evenodd" d="M45.148 34.6523L44.6859 36.122L43.0195 36.4542L44.6729 36.8513L44.8455 38.089L45.3465 36.8643L46.4117 36.6973L45.4337 36.0552L45.148 34.6523Z" fill="#FFCB05"/>
<path fill-rule="evenodd" clip-rule="evenodd" d="M40.9328 37.3906L40.6155 39.1053L38.8545 39.2444L40.6044 39.8345L40.6805 41.3172L41.2817 39.8475L42.6326 39.4857L41.3652 39.0384L40.9328 37.3906Z" fill="#FFCB05"/>
<path fill-rule="evenodd" clip-rule="evenodd" d="M45.3063 38.9922L44.3432 41.9798L40.875 42.6163L44.037 43.3196L44.603 46.8101L45.5624 43.4847L48.2642 43.2101L45.8946 42.0614L45.3063 38.9922Z" fill="#FFCB05"/>
<path fill-rule="evenodd" clip-rule="evenodd" d="M49.7631 36.1055L49.0914 38.7034L45.7178 39.0931L48.7833 40.0432L49.3474 43.2405L50.1138 40.0098L52.3814 39.8353L50.3495 38.7832L49.7631 36.1055Z" fill="#FFCB05"/>
<path fill-rule="evenodd" clip-rule="evenodd" d="M52.0102 32.334L51.7634 33.5086L50.5127 33.6868L51.6484 34.1173L51.8562 35.5628L52.142 34.0987L52.9826 34.0226L52.2273 33.5457L52.0102 32.334Z" fill="#FFCB05"/>
<path fill-rule="evenodd" clip-rule="evenodd" d="M49.0084 29.2012L48.7597 30.3758L47.5127 30.5539L48.6465 30.9826L48.8543 32.43L49.1401 30.9696L49.977 30.8898L49.2255 30.4148L49.0084 29.2012Z" fill="#FFCB05"/>
<path fill-rule="evenodd" clip-rule="evenodd" d="M51.1363 27.8809L50.8913 29.0555L49.6406 29.2336L50.7763 29.6641L50.9878 31.1097L51.2718 29.6493L52.1087 29.5695L51.3571 29.0945L51.1363 27.8809Z" fill="#FFCB05"/>
<path fill-rule="evenodd" clip-rule="evenodd" d="M9.47363 53.6806L36.2712 62.9849L45.4177 61.8715C51.6583 54.6344 59.4669 49.9433 69.1701 48.3066C64.1023 46.9928 59.3648 45.8943 53.3377 44.1908C48.6484 44.0999 43.7495 48.624 38.7151 57.6165C38.6687 48.8782 26.8389 55.2765 25.3729 51.1217L18.2342 51.7118L18.6239 52.4652L15.4433 52.6934L16.1559 53.2854L14.9237 53.4821L16.6086 54.9221L13.4317 53.8755L9.47363 53.6806Z" fill="white"/>
<path d="M16.4269 53.3965L14.7383 53.6229C21.9753 58.108 31.018 54.9218 36.4495 61.0102" stroke="#1471B9" stroke-width="0.129896" stroke-miterlimit="22.93"/>
<path d="M18.3413 52.6016H15.3018C19.6403 57.2407 35.0163 53.4923 36.6808 60.1003" stroke="#1471B9" stroke-width="0.129896" stroke-miterlimit="22.93"/>
<path d="M38.5918 57.1447C38.9852 49.247 26.0457 55.2333 25.4297 51.123L18.1221 51.6909C20.7014 57.5882 35.7508 50.88 37.2502 59.0801" stroke="#1471B9" stroke-width="0.129896" stroke-miterlimit="22.93"/>
<path d="M54.3453 44.6454C49.6153 42.0864 41.2017 51.2608 37.7168 59.6484" stroke="#1471B9" stroke-width="0.129896" stroke-miterlimit="22.93"/>
<path d="M56.9336 45.553C51.3091 42.8734 44.3689 50.8398 37.2432 60.3278" stroke="#1471B9" stroke-width="0.129896" stroke-miterlimit="22.93"/>
<path fill-rule="evenodd" clip-rule="evenodd" d="M9.22656 53.7379L36.0056 62.942C39.1169 62.5708 42.2294 62.1923 45.3432 61.8063C52.1887 54.5526 59.8749 49.2862 69.4222 48.3973L59.0695 45.7734C49.4053 48.4549 42.749 55.3932 36.1169 62.3667L13.6133 53.8511C12.1511 53.8115 10.6888 53.7738 9.22656 53.7379Z" fill="#1471B9" stroke="white" stroke-width="0.185566" stroke-miterlimit="22.93"/>
</g>
<defs>
<clipPath id="clip0_3582_35668">
<rect width="59" height="48" fill="white" transform="translate(7 12)"/>
</clipPath>
</defs>
</svg>
